<mxfile host="app.diagrams.net" modified="2023-08-31T20:50:51.362Z" agent="Mozilla/5.0 (Windows NT 10.0; Win64; x64) AppleWebKit/537.36 (KHTML, like Gecko) Chrome/116.0.0.0 Safari/537.36" etag="PLwHLEOfVBPQT8wA7rJD" version="21.6.9" type="device">
  <diagram name="PÃ¡gina-1" id="r5auKBAjSaOcK4Md0aPP">
    <mxGraphModel dx="2316" dy="626" grid="1" gridSize="10" guides="1" tooltips="1" connect="1" arrows="1" fold="1" page="1" pageScale="1" pageWidth="1169" pageHeight="827" math="0" shadow="0">
      <root>
        <mxCell id="0" />
        <mxCell id="1" parent="0" />
        <mxCell id="DP8Jx5X4zibSQCms_1Pf-8" style="edgeStyle=orthogonalEdgeStyle;rounded=0;orthogonalLoop=1;jettySize=auto;html=1;exitX=0.5;exitY=0;exitDx=0;exitDy=0;entryX=0.2;entryY=1;entryDx=0;entryDy=0;entryPerimeter=0;" parent="1" source="DP8Jx5X4zibSQCms_1Pf-1" target="DP8Jx5X4zibSQCms_1Pf-4" edge="1">
          <mxGeometry relative="1" as="geometry" />
        </mxCell>
        <mxCell id="DP8Jx5X4zibSQCms_1Pf-9" style="edgeStyle=orthogonalEdgeStyle;rounded=0;orthogonalLoop=1;jettySize=auto;html=1;exitX=0.25;exitY=0;exitDx=0;exitDy=0;entryX=0.66;entryY=0.992;entryDx=0;entryDy=0;entryPerimeter=0;" parent="1" source="DP8Jx5X4zibSQCms_1Pf-1" target="DP8Jx5X4zibSQCms_1Pf-2" edge="1">
          <mxGeometry relative="1" as="geometry" />
        </mxCell>
        <mxCell id="DP8Jx5X4zibSQCms_1Pf-10" style="edgeStyle=orthogonalEdgeStyle;rounded=0;orthogonalLoop=1;jettySize=auto;html=1;exitX=0;exitY=0.5;exitDx=0;exitDy=0;entryX=1;entryY=0.725;entryDx=0;entryDy=0;entryPerimeter=0;" parent="1" source="DP8Jx5X4zibSQCms_1Pf-1" target="DP8Jx5X4zibSQCms_1Pf-5" edge="1">
          <mxGeometry relative="1" as="geometry" />
        </mxCell>
        <mxCell id="DP8Jx5X4zibSQCms_1Pf-11" style="edgeStyle=orthogonalEdgeStyle;rounded=0;orthogonalLoop=1;jettySize=auto;html=1;exitX=0;exitY=1;exitDx=0;exitDy=0;entryX=1;entryY=0.692;entryDx=0;entryDy=0;entryPerimeter=0;" parent="1" source="DP8Jx5X4zibSQCms_1Pf-1" target="DP8Jx5X4zibSQCms_1Pf-3" edge="1">
          <mxGeometry relative="1" as="geometry" />
        </mxCell>
        <mxCell id="DP8Jx5X4zibSQCms_1Pf-19" style="edgeStyle=orthogonalEdgeStyle;rounded=0;orthogonalLoop=1;jettySize=auto;html=1;exitX=1;exitY=0.5;exitDx=0;exitDy=0;entryX=0;entryY=0.5;entryDx=0;entryDy=0;" parent="1" source="DP8Jx5X4zibSQCms_1Pf-1" target="DP8Jx5X4zibSQCms_1Pf-13" edge="1">
          <mxGeometry relative="1" as="geometry" />
        </mxCell>
        <mxCell id="4TX8RcS20DUWZ-DZdMpi-28" style="edgeStyle=orthogonalEdgeStyle;rounded=0;orthogonalLoop=1;jettySize=auto;html=1;exitX=0.5;exitY=1;exitDx=0;exitDy=0;" edge="1" parent="1" source="DP8Jx5X4zibSQCms_1Pf-1" target="4TX8RcS20DUWZ-DZdMpi-27">
          <mxGeometry relative="1" as="geometry" />
        </mxCell>
        <mxCell id="DP8Jx5X4zibSQCms_1Pf-1" value="&lt;b&gt;proveedores&lt;/b&gt;" style="whiteSpace=wrap;html=1;align=center;" parent="1" vertex="1">
          <mxGeometry x="150" y="140" width="100" height="40" as="geometry" />
        </mxCell>
        <mxCell id="DP8Jx5X4zibSQCms_1Pf-2" value="RUT" style="ellipse;whiteSpace=wrap;html=1;align=center;fontStyle=4;" parent="1" vertex="1">
          <mxGeometry x="50" y="20" width="100" height="40" as="geometry" />
        </mxCell>
        <mxCell id="DP8Jx5X4zibSQCms_1Pf-3" value="telefono" style="ellipse;whiteSpace=wrap;html=1;align=center;" parent="1" vertex="1">
          <mxGeometry x="10" y="160" width="100" height="40" as="geometry" />
        </mxCell>
        <mxCell id="DP8Jx5X4zibSQCms_1Pf-4" value="nombre" style="ellipse;whiteSpace=wrap;html=1;align=center;" parent="1" vertex="1">
          <mxGeometry x="170" y="10" width="100" height="40" as="geometry" />
        </mxCell>
        <mxCell id="DP8Jx5X4zibSQCms_1Pf-5" value="direccion_id" style="ellipse;whiteSpace=wrap;html=1;align=center;" parent="1" vertex="1">
          <mxGeometry x="-20" y="80" width="100" height="40" as="geometry" />
        </mxCell>
        <mxCell id="4TX8RcS20DUWZ-DZdMpi-25" style="edgeStyle=orthogonalEdgeStyle;rounded=0;orthogonalLoop=1;jettySize=auto;html=1;exitX=0;exitY=0.5;exitDx=0;exitDy=0;entryX=0.75;entryY=0;entryDx=0;entryDy=0;" edge="1" parent="1" source="DP8Jx5X4zibSQCms_1Pf-6" target="DP8Jx5X4zibSQCms_1Pf-1">
          <mxGeometry relative="1" as="geometry" />
        </mxCell>
        <mxCell id="DP8Jx5X4zibSQCms_1Pf-6" value="pagina-web" style="ellipse;whiteSpace=wrap;html=1;align=center;" parent="1" vertex="1">
          <mxGeometry x="240" y="50" width="100" height="40" as="geometry" />
        </mxCell>
        <mxCell id="DP8Jx5X4zibSQCms_1Pf-20" style="edgeStyle=orthogonalEdgeStyle;rounded=0;orthogonalLoop=1;jettySize=auto;html=1;exitX=0;exitY=0.5;exitDx=0;exitDy=0;entryX=1;entryY=0.5;entryDx=0;entryDy=0;" parent="1" source="DP8Jx5X4zibSQCms_1Pf-7" target="DP8Jx5X4zibSQCms_1Pf-13" edge="1">
          <mxGeometry relative="1" as="geometry" />
        </mxCell>
        <mxCell id="DP8Jx5X4zibSQCms_1Pf-21" style="edgeStyle=orthogonalEdgeStyle;rounded=0;orthogonalLoop=1;jettySize=auto;html=1;exitX=0;exitY=0;exitDx=0;exitDy=0;entryX=0.5;entryY=1;entryDx=0;entryDy=0;" parent="1" source="DP8Jx5X4zibSQCms_1Pf-7" target="DP8Jx5X4zibSQCms_1Pf-14" edge="1">
          <mxGeometry relative="1" as="geometry">
            <Array as="points">
              <mxPoint x="535" y="130" />
              <mxPoint x="480" y="130" />
            </Array>
          </mxGeometry>
        </mxCell>
        <mxCell id="DP8Jx5X4zibSQCms_1Pf-22" style="edgeStyle=orthogonalEdgeStyle;rounded=0;orthogonalLoop=1;jettySize=auto;html=1;exitX=0.25;exitY=0;exitDx=0;exitDy=0;entryX=0.7;entryY=0.958;entryDx=0;entryDy=0;entryPerimeter=0;" parent="1" source="DP8Jx5X4zibSQCms_1Pf-7" target="DP8Jx5X4zibSQCms_1Pf-17" edge="1">
          <mxGeometry relative="1" as="geometry" />
        </mxCell>
        <mxCell id="DP8Jx5X4zibSQCms_1Pf-23" style="edgeStyle=orthogonalEdgeStyle;rounded=0;orthogonalLoop=1;jettySize=auto;html=1;exitX=0.5;exitY=0;exitDx=0;exitDy=0;entryX=0;entryY=0.5;entryDx=0;entryDy=0;" parent="1" source="DP8Jx5X4zibSQCms_1Pf-7" target="DP8Jx5X4zibSQCms_1Pf-18" edge="1">
          <mxGeometry relative="1" as="geometry" />
        </mxCell>
        <mxCell id="DP8Jx5X4zibSQCms_1Pf-24" style="edgeStyle=orthogonalEdgeStyle;rounded=0;orthogonalLoop=1;jettySize=auto;html=1;exitX=0.75;exitY=0;exitDx=0;exitDy=0;entryX=0;entryY=0.5;entryDx=0;entryDy=0;" parent="1" source="DP8Jx5X4zibSQCms_1Pf-7" target="DP8Jx5X4zibSQCms_1Pf-16" edge="1">
          <mxGeometry relative="1" as="geometry" />
        </mxCell>
        <mxCell id="DP8Jx5X4zibSQCms_1Pf-25" style="edgeStyle=orthogonalEdgeStyle;rounded=0;orthogonalLoop=1;jettySize=auto;html=1;exitX=1;exitY=0.5;exitDx=0;exitDy=0;" parent="1" source="DP8Jx5X4zibSQCms_1Pf-7" target="DP8Jx5X4zibSQCms_1Pf-15" edge="1">
          <mxGeometry relative="1" as="geometry" />
        </mxCell>
        <mxCell id="DP8Jx5X4zibSQCms_1Pf-27" style="edgeStyle=orthogonalEdgeStyle;rounded=0;orthogonalLoop=1;jettySize=auto;html=1;exitX=1;exitY=1;exitDx=0;exitDy=0;entryX=0;entryY=0.5;entryDx=0;entryDy=0;" parent="1" source="DP8Jx5X4zibSQCms_1Pf-7" target="DP8Jx5X4zibSQCms_1Pf-26" edge="1">
          <mxGeometry relative="1" as="geometry" />
        </mxCell>
        <mxCell id="DP8Jx5X4zibSQCms_1Pf-33" style="edgeStyle=orthogonalEdgeStyle;rounded=0;orthogonalLoop=1;jettySize=auto;html=1;exitX=0.5;exitY=1;exitDx=0;exitDy=0;entryX=0.5;entryY=0;entryDx=0;entryDy=0;" parent="1" source="DP8Jx5X4zibSQCms_1Pf-7" target="DP8Jx5X4zibSQCms_1Pf-30" edge="1">
          <mxGeometry relative="1" as="geometry" />
        </mxCell>
        <mxCell id="DP8Jx5X4zibSQCms_1Pf-7" value="&lt;b&gt;direcciones&lt;/b&gt;" style="whiteSpace=wrap;html=1;align=center;" parent="1" vertex="1">
          <mxGeometry x="535" y="140" width="100" height="40" as="geometry" />
        </mxCell>
        <mxCell id="DP8Jx5X4zibSQCms_1Pf-13" value="Tienen" style="shape=rhombus;perimeter=rhombusPerimeter;whiteSpace=wrap;html=1;align=center;" parent="1" vertex="1">
          <mxGeometry x="340" y="130" width="120" height="60" as="geometry" />
        </mxCell>
        <mxCell id="DP8Jx5X4zibSQCms_1Pf-14" value="id" style="ellipse;whiteSpace=wrap;html=1;align=center;fontStyle=4;" parent="1" vertex="1">
          <mxGeometry x="430" y="40" width="100" height="40" as="geometry" />
        </mxCell>
        <mxCell id="DP8Jx5X4zibSQCms_1Pf-15" value="delegacion" style="ellipse;whiteSpace=wrap;html=1;align=center;" parent="1" vertex="1">
          <mxGeometry x="710" y="160" width="100" height="40" as="geometry" />
        </mxCell>
        <mxCell id="DP8Jx5X4zibSQCms_1Pf-16" value="ciudad" style="ellipse;whiteSpace=wrap;html=1;align=center;" parent="1" vertex="1">
          <mxGeometry x="710" y="100" width="100" height="40" as="geometry" />
        </mxCell>
        <mxCell id="DP8Jx5X4zibSQCms_1Pf-17" value="calle" style="ellipse;whiteSpace=wrap;html=1;align=center;" parent="1" vertex="1">
          <mxGeometry x="490" width="100" height="40" as="geometry" />
        </mxCell>
        <mxCell id="DP8Jx5X4zibSQCms_1Pf-18" value="numero_ext" style="ellipse;whiteSpace=wrap;html=1;align=center;" parent="1" vertex="1">
          <mxGeometry x="680" y="50" width="100" height="40" as="geometry" />
        </mxCell>
        <mxCell id="DP8Jx5X4zibSQCms_1Pf-26" value="cp" style="ellipse;whiteSpace=wrap;html=1;align=center;" parent="1" vertex="1">
          <mxGeometry x="690" y="220" width="100" height="40" as="geometry" />
        </mxCell>
        <mxCell id="DP8Jx5X4zibSQCms_1Pf-28" value="1" style="text;html=1;align=center;verticalAlign=middle;resizable=0;points=[];autosize=1;strokeColor=none;fillColor=none;" parent="1" vertex="1">
          <mxGeometry x="275" y="138" width="30" height="30" as="geometry" />
        </mxCell>
        <mxCell id="DP8Jx5X4zibSQCms_1Pf-29" value="1" style="text;html=1;align=center;verticalAlign=middle;resizable=0;points=[];autosize=1;strokeColor=none;fillColor=none;" parent="1" vertex="1">
          <mxGeometry x="505" y="138" width="30" height="30" as="geometry" />
        </mxCell>
        <mxCell id="DP8Jx5X4zibSQCms_1Pf-30" value="Tienen" style="shape=rhombus;perimeter=rhombusPerimeter;whiteSpace=wrap;html=1;align=center;" parent="1" vertex="1">
          <mxGeometry x="525" y="280" width="120" height="60" as="geometry" />
        </mxCell>
        <mxCell id="DP8Jx5X4zibSQCms_1Pf-32" style="edgeStyle=orthogonalEdgeStyle;rounded=0;orthogonalLoop=1;jettySize=auto;html=1;exitX=0.5;exitY=0;exitDx=0;exitDy=0;entryX=0.5;entryY=1;entryDx=0;entryDy=0;" parent="1" source="DP8Jx5X4zibSQCms_1Pf-31" target="DP8Jx5X4zibSQCms_1Pf-30" edge="1">
          <mxGeometry relative="1" as="geometry" />
        </mxCell>
        <mxCell id="4TX8RcS20DUWZ-DZdMpi-5" style="edgeStyle=orthogonalEdgeStyle;rounded=0;orthogonalLoop=1;jettySize=auto;html=1;exitX=0;exitY=0.5;exitDx=0;exitDy=0;entryX=0.5;entryY=1;entryDx=0;entryDy=0;" edge="1" parent="1" source="DP8Jx5X4zibSQCms_1Pf-31" target="4TX8RcS20DUWZ-DZdMpi-1">
          <mxGeometry relative="1" as="geometry" />
        </mxCell>
        <mxCell id="4TX8RcS20DUWZ-DZdMpi-7" style="edgeStyle=orthogonalEdgeStyle;rounded=0;orthogonalLoop=1;jettySize=auto;html=1;exitX=1;exitY=0.5;exitDx=0;exitDy=0;entryX=0.5;entryY=0;entryDx=0;entryDy=0;" edge="1" parent="1" source="DP8Jx5X4zibSQCms_1Pf-31" target="DP8Jx5X4zibSQCms_1Pf-34">
          <mxGeometry relative="1" as="geometry" />
        </mxCell>
        <mxCell id="4TX8RcS20DUWZ-DZdMpi-8" style="edgeStyle=orthogonalEdgeStyle;rounded=0;orthogonalLoop=1;jettySize=auto;html=1;exitX=0.75;exitY=0;exitDx=0;exitDy=0;entryX=0.5;entryY=1;entryDx=0;entryDy=0;" edge="1" parent="1" source="DP8Jx5X4zibSQCms_1Pf-31" target="DP8Jx5X4zibSQCms_1Pf-35">
          <mxGeometry relative="1" as="geometry" />
        </mxCell>
        <mxCell id="4TX8RcS20DUWZ-DZdMpi-12" style="edgeStyle=orthogonalEdgeStyle;rounded=0;orthogonalLoop=1;jettySize=auto;html=1;exitX=0.5;exitY=1;exitDx=0;exitDy=0;entryX=0.5;entryY=0;entryDx=0;entryDy=0;" edge="1" parent="1" source="DP8Jx5X4zibSQCms_1Pf-31" target="4TX8RcS20DUWZ-DZdMpi-11">
          <mxGeometry relative="1" as="geometry" />
        </mxCell>
        <mxCell id="DP8Jx5X4zibSQCms_1Pf-31" value="&lt;b&gt;clientes&lt;/b&gt;" style="whiteSpace=wrap;html=1;align=center;" parent="1" vertex="1">
          <mxGeometry x="535" y="440" width="100" height="40" as="geometry" />
        </mxCell>
        <mxCell id="DP8Jx5X4zibSQCms_1Pf-34" value="nombre" style="ellipse;whiteSpace=wrap;html=1;align=center;" parent="1" vertex="1">
          <mxGeometry x="680" y="490" width="100" height="40" as="geometry" />
        </mxCell>
        <mxCell id="DP8Jx5X4zibSQCms_1Pf-35" value="RUT" style="ellipse;whiteSpace=wrap;html=1;align=center;fontStyle=4;" parent="1" vertex="1">
          <mxGeometry x="680" y="350" width="100" height="40" as="geometry" />
        </mxCell>
        <mxCell id="4TX8RcS20DUWZ-DZdMpi-1" value="direccion_id" style="ellipse;whiteSpace=wrap;html=1;align=center;" vertex="1" parent="1">
          <mxGeometry x="405" y="374" width="100" height="40" as="geometry" />
        </mxCell>
        <mxCell id="4TX8RcS20DUWZ-DZdMpi-9" value="N" style="text;html=1;align=center;verticalAlign=middle;resizable=0;points=[];autosize=1;strokeColor=none;fillColor=none;" vertex="1" parent="1">
          <mxGeometry x="555" y="180" width="30" height="30" as="geometry" />
        </mxCell>
        <mxCell id="4TX8RcS20DUWZ-DZdMpi-10" value="N" style="text;html=1;align=center;verticalAlign=middle;resizable=0;points=[];autosize=1;strokeColor=none;fillColor=none;" vertex="1" parent="1">
          <mxGeometry x="555" y="418" width="30" height="30" as="geometry" />
        </mxCell>
        <mxCell id="4TX8RcS20DUWZ-DZdMpi-11" value="Tienen" style="shape=rhombus;perimeter=rhombusPerimeter;whiteSpace=wrap;html=1;align=center;" vertex="1" parent="1">
          <mxGeometry x="525" y="560" width="120" height="60" as="geometry" />
        </mxCell>
        <mxCell id="4TX8RcS20DUWZ-DZdMpi-15" style="edgeStyle=orthogonalEdgeStyle;rounded=0;orthogonalLoop=1;jettySize=auto;html=1;exitX=0.5;exitY=0;exitDx=0;exitDy=0;entryX=0.5;entryY=1;entryDx=0;entryDy=0;" edge="1" parent="1" source="4TX8RcS20DUWZ-DZdMpi-13" target="4TX8RcS20DUWZ-DZdMpi-11">
          <mxGeometry relative="1" as="geometry" />
        </mxCell>
        <mxCell id="4TX8RcS20DUWZ-DZdMpi-22" style="edgeStyle=orthogonalEdgeStyle;rounded=0;orthogonalLoop=1;jettySize=auto;html=1;exitX=0.75;exitY=0;exitDx=0;exitDy=0;entryX=0.008;entryY=0.36;entryDx=0;entryDy=0;entryPerimeter=0;" edge="1" parent="1" source="4TX8RcS20DUWZ-DZdMpi-13" target="4TX8RcS20DUWZ-DZdMpi-21">
          <mxGeometry relative="1" as="geometry" />
        </mxCell>
        <mxCell id="4TX8RcS20DUWZ-DZdMpi-23" style="edgeStyle=orthogonalEdgeStyle;rounded=0;orthogonalLoop=1;jettySize=auto;html=1;exitX=1;exitY=0.5;exitDx=0;exitDy=0;entryX=0.5;entryY=0;entryDx=0;entryDy=0;" edge="1" parent="1" source="4TX8RcS20DUWZ-DZdMpi-13" target="4TX8RcS20DUWZ-DZdMpi-19">
          <mxGeometry relative="1" as="geometry" />
        </mxCell>
        <mxCell id="4TX8RcS20DUWZ-DZdMpi-24" style="edgeStyle=orthogonalEdgeStyle;rounded=0;orthogonalLoop=1;jettySize=auto;html=1;exitX=0;exitY=0.5;exitDx=0;exitDy=0;entryX=0.5;entryY=1;entryDx=0;entryDy=0;" edge="1" parent="1" source="4TX8RcS20DUWZ-DZdMpi-13" target="4TX8RcS20DUWZ-DZdMpi-20">
          <mxGeometry relative="1" as="geometry" />
        </mxCell>
        <mxCell id="4TX8RcS20DUWZ-DZdMpi-13" value="&lt;b&gt;telefonos_clientes&lt;/b&gt;" style="whiteSpace=wrap;html=1;align=center;" vertex="1" parent="1">
          <mxGeometry x="527" y="690" width="115" height="40" as="geometry" />
        </mxCell>
        <mxCell id="4TX8RcS20DUWZ-DZdMpi-19" value="telefono" style="ellipse;whiteSpace=wrap;html=1;align=center;" vertex="1" parent="1">
          <mxGeometry x="660" y="740" width="100" height="40" as="geometry" />
        </mxCell>
        <mxCell id="4TX8RcS20DUWZ-DZdMpi-20" value="cliente_id" style="ellipse;whiteSpace=wrap;html=1;align=center;" vertex="1" parent="1">
          <mxGeometry x="405" y="640" width="100" height="40" as="geometry" />
        </mxCell>
        <mxCell id="4TX8RcS20DUWZ-DZdMpi-21" value="id" style="ellipse;whiteSpace=wrap;html=1;align=center;fontStyle=4;" vertex="1" parent="1">
          <mxGeometry x="660" y="630" width="100" height="40" as="geometry" />
        </mxCell>
        <mxCell id="4TX8RcS20DUWZ-DZdMpi-29" style="edgeStyle=orthogonalEdgeStyle;rounded=0;orthogonalLoop=1;jettySize=auto;html=1;exitX=0.5;exitY=0;exitDx=0;exitDy=0;entryX=0.5;entryY=1;entryDx=0;entryDy=0;" edge="1" parent="1" source="4TX8RcS20DUWZ-DZdMpi-26" target="4TX8RcS20DUWZ-DZdMpi-27">
          <mxGeometry relative="1" as="geometry" />
        </mxCell>
        <mxCell id="4TX8RcS20DUWZ-DZdMpi-26" value="&lt;b&gt;productos&lt;/b&gt;" style="whiteSpace=wrap;html=1;align=center;" vertex="1" parent="1">
          <mxGeometry x="150" y="414" width="100" height="40" as="geometry" />
        </mxCell>
        <mxCell id="4TX8RcS20DUWZ-DZdMpi-27" value="Relationship" style="shape=rhombus;perimeter=rhombusPerimeter;whiteSpace=wrap;html=1;align=center;" vertex="1" parent="1">
          <mxGeometry x="140" y="260" width="120" height="60" as="geometry" />
        </mxCell>
        <mxCell id="4TX8RcS20DUWZ-DZdMpi-30" value="Attribute" style="ellipse;whiteSpace=wrap;html=1;align=center;" vertex="1" parent="1">
          <mxGeometry x="180" y="540" width="100" height="40" as="geometry" />
        </mxCell>
        <mxCell id="4TX8RcS20DUWZ-DZdMpi-31" value="Attribute" style="ellipse;whiteSpace=wrap;html=1;align=center;fontStyle=4;" vertex="1" parent="1">
          <mxGeometry x="50" y="530" width="100" height="40" as="geometry" />
        </mxCell>
      </root>
    </mxGraphModel>
  </diagram>
</mxfile>
